<?xml version="1.0" encoding="UTF-8" standalone="no"?>
<svg
   enable-background="new 0 0 64 64"
   version="1.1"
   viewBox="0 0 64 64"
   xml:space="preserve"
   id="svg5"
   sodipodi:docname="mobile.svg"
   inkscape:version="1.1 (1:1.1+202105261517+ce6663b3b7)"
   xmlns:inkscape="http://www.inkscape.org/namespaces/inkscape"
   xmlns:sodipodi="http://sodipodi.sourceforge.net/DTD/sodipodi-0.dtd"
   xmlns:xlink="http://www.w3.org/1999/xlink"
   xmlns="http://www.w3.org/2000/svg"
   xmlns:svg="http://www.w3.org/2000/svg"><defs
     id="defs9"><linearGradient
       inkscape:collect="always"
       id="linearGradient6931"><stop
         style="stop-color:#ffffff;stop-opacity:1;"
         offset="0"
         id="stop6927" /><stop
         style="stop-color:#ffffff;stop-opacity:0;"
         offset="1"
         id="stop6929" /></linearGradient><color-profile
       name="Artifex-PS-Gray-Profile"
       xlink:href="file:///usr/share/color/icc/ghostscript/ps_gray.icc"
       id="color-profile7488" /><color-profile
       name="Blue"
       xlink:href="file:///usr/share/color/icc/colord/Bluish.icc"
       id="color-profile7490" /><color-profile
       name="Artifex-PS-CMYK-Profile"
       xlink:href="file:///usr/share/color/icc/ghostscript/gray_to_k.icc"
       id="color-profile7492" /><linearGradient
       inkscape:collect="always"
       xlink:href="#linearGradient6931"
       id="linearGradient6933"
       x1="33.148045"
       y1="6.773499"
       x2="32.530342"
       y2="51.77541"
       gradientUnits="userSpaceOnUse" /></defs><sodipodi:namedview
     id="namedview7"
     pagecolor="#ffffff"
     bordercolor="#666666"
     borderopacity="1.0"
     inkscape:pageshadow="2"
     inkscape:pageopacity="0"
     inkscape:pagecheckerboard="0"
     showgrid="false"
     inkscape:zoom="12.734375"
     inkscape:cx="19.710429"
     inkscape:cy="26.856442"
     inkscape:window-width="1920"
     inkscape:window-height="997"
     inkscape:window-x="0"
     inkscape:window-y="28"
     inkscape:window-maximized="1"
     inkscape:current-layer="Glyph_copy_2" /><g
     id="Glyph_copy_2"
     style="display:inline"><path
       d="M 61,6.167 H 3 c -1.65,0 -3,1.35 -3,3 v 45.667 c 0,1.65 1.35,3 3,3 h 58 c 1.65,0 3,-1.35 3,-3 V 9.167 c 0,-1.65 -1.35,-3 -3,-3 z m -35.747,6.875 h 31.863 v 5.322 H 21.777 Z m 11.973,17.471 v -3.869 l 13.851,5.99 v 3.304 L 37.226,41.97 v -3.897 l 9.666,-3.8 z M 35.945,23.724 30.892,44.598 H 28.043 L 33.04,23.724 Z m -9.184,14.334 v 3.897 L 12.923,35.937 v -3.332 l 13.838,-5.99 v 3.925 l -9.652,3.69 z M 17.27,13.985 c 0.91,0 1.648,0.737 1.648,1.646 0,0.909 -0.738,1.646 -1.648,1.646 -0.91,0 -1.648,-0.737 -1.648,-1.646 -10e-4,-0.909 0.737,-1.646 1.648,-1.646 z m -4.369,0 c 0.91,0 1.648,0.737 1.648,1.646 0,0.909 -0.738,1.646 -1.648,1.646 -0.91,0 -1.648,-0.737 -1.648,-1.646 0,-0.909 0.738,-1.646 1.648,-1.646 z m -4.369,0 c 0.91,0 1.648,0.737 1.648,1.646 0,0.909 -0.738,1.646 -1.648,1.646 -0.91,0 -1.648,-0.737 -1.648,-1.646 0,-0.909 0.738,-1.646 1.648,-1.646 z m -6.29,40.089 4.525,-3.437 h 7.954 l -4.51,3.437 z m 11.432,0 4.525,-3.437 H 45.8 l 4.525,3.437 z m 40.114,0 -4.51,-3.437 h 7.954 l 4.526,3.437 z"
       id="path2"
       style="display:inline;fill:url(#linearGradient6933);fill-opacity:1" /></g></svg>
